# xmcd CD database file
#
# Track frame offsets:
#	150
#	7346
#	13489
#	18925
#	29544
#	39567
#	44843
#	54118
#	60864
#	65896
#	74443
#	80315
#	90401
#	99783
#	106734
#	112215
#	125269
#	133976
#	145605
#	160102
#	168768
#	179815
#	184704
#	194692
#	199797
#	209809
#	217840
#	224875
#	232256
#	240561
#	251274
#	257807
#	263438
#	279591
#	284528
#	294604
#
# Disc length: 3991 seconds
#
# Revision: 2
# Processed by: cddbd v1.5.2PL0 Copyright (c) Steve Scherf et al.
# Submitted via: CDex 1.70beta2
#
DISCID=2b0f9524
DTITLE=Long and McQuade - Jazz Selections (All Levels)
DYEAR=2002
DGENRE=Jazz
TTITLE0=Just in Time
TTITLE1=Slam Dunk
TTITLE2=St. Louis Blues
TTITLE3=Dreamsville
TTITLE4=Leap Frog
TTITLE5=Swingin' Shepherd Blues
TTITLE6=All Blues
TTITLE7=Cousin Mary
TTITLE8=Muggle Jive
TTITLE9=Sidewinder
TTITLE10=The Right Track
TTITLE11=Blue Midnight
TTITLE12=Chilli Pepper 101
TTITLE13=Miles Mood
TTITLE14=One Note at a Time
TTITLE15=Without a Trace
TTITLE16=Easy Street
TTITLE17=A Night in Tunisia
TTITLE18=Shadow of Your Smile
TTITLE19=Doxy
TTITLE20=Hodgepodge
TTITLE21=Hogwart Stomp
TTITLE22=Passado
TTITLE23=Pure and Simple
TTITLE24=Reunion in Rio
TTITLE25=Just a Minor Thing
TTITLE26=The Chicken
TTITLE27=A Night in Havana
TTITLE28=One Note Samba
TTITLE29=Samba Stole My Gal
TTITLE30=Too Late... The Mambo
TTITLE31=High Impact
TTITLE32=Kind of True
TTITLE33=Belly Roll
TTITLE34=Tijuca
TTITLE35=Ya Gotta Try...Harder
EXTD=YEAR: 2002
EXTT0=
EXTT1=
EXTT2=
EXTT3=
EXTT4=
EXTT5=
EXTT6=
EXTT7=
EXTT8=
EXTT9=
EXTT10=
EXTT11=
EXTT12=
EXTT13=
EXTT14=
EXTT15=
EXTT16=
EXTT17=
EXTT18=
EXTT19=
EXTT20=
EXTT21=
EXTT22=
EXTT23=
EXTT24=
EXTT25=
EXTT26=
EXTT27=
EXTT28=
EXTT29=
EXTT30=
EXTT31=
EXTT32=
EXTT33=
EXTT34=
EXTT35=
PLAYORDER=
